<svg width="48" height="48" fill="none" xmlns="http://www.w3.org/2000/svg"><path fill-rule="evenodd" clip-rule="evenodd" d="M41.5 24.821a7.37 7.37 0 00-7.59-7.13 7.61 7.61 0 00-7 4.39v-6.86a1.14 1.14 0 00-1.18-1.1h-2.8a1.142 1.142 0 00-1.2 1.1v13.16h1.75v-12.61h1.64v12.61h1.75v-.82a7.61 7.61 0 007 4.39 7.85 7.85 0 004.63-1.49l4 4.42 1.33-1.06-4-4.51a6.83 6.83 0 001.67-4.49zm-7.59 5.48a5.66 5.66 0 01-5.83-5.48 5.85 5.85 0 0111.67 0 5.66 5.66 0 01-5.84 5.48zm-22.27-1.92v-5.48H10v5.48H8.25v-6a1.13 1.13 0 011.16-1.1h2.82a1.129 1.129 0 011.16 1.1v6h-1.75zm31-21.38H5.33A2.26 2.26 0 003 9.191v23.58a2.26 2.26 0 002.33 2.19H20.5v4.39h-5.25v1.65h17.48v-1.65h-4.65v-4.39h7v-1.64H5.33a.568.568 0 01-.6-.55V9.191a.57.57 0 01.58-.55h37.35a.57.57 0 01.59.55v15.35H45V9.191a2.27 2.27 0 00-2.34-2.19h-.02zm-20.41 28h4.1v4.39h-4.08l-.02-4.39zm-3.85-6.58v-9h-1.65v9h-1.72v-9.63a1.13 1.13 0 011.16-1.1h2.82a1.129 1.129 0 011.16 1.1v9.59l-1.77.04z" fill="#000"/></svg>