<svg width="24" height="24" fill="none" xmlns="http://www.w3.org/2000/svg"><path fill-rule="evenodd" clip-rule="evenodd" d="M12 23c6.075 0 11-4.925 11-11S18.075 1 12 1 1 5.925 1 12s4.925 11 11 11zm0 1c6.627 0 12-5.373 12-12S18.627 0 12 0 0 5.373 0 12s5.373 12 12 12z" fill="#000"/><path d="M10.156 14.21v-.577c0-.5.107-.935.32-1.305.214-.37.605-.763 1.172-1.18.547-.39.907-.708 1.079-.953.177-.244.265-.518.265-.82 0-.339-.125-.596-.375-.773-.25-.178-.599-.266-1.047-.266-.78 0-1.672.255-2.672.766L8.047 7.39a7.443 7.443 0 013.695-.977c1.073 0 1.925.258 2.555.774.635.515.953 1.203.953 2.062 0 .573-.13 1.068-.39 1.484-.261.417-.756.886-1.485 1.407-.5.37-.818.65-.953.843-.13.193-.195.446-.195.758v.469h-2.07zm-.25 2.673c0-.438.117-.768.352-.992.234-.224.575-.336 1.023-.336.432 0 .766.114 1 .343.24.23.36.558.36.985 0 .411-.12.737-.36.976-.24.235-.573.352-1 .352-.437 0-.776-.115-1.015-.344-.24-.234-.36-.562-.36-.984z" fill="#000"/></svg>