<svg width="235" height="40" xmlns="http://www.w3.org/2000/svg"><path fill="#e6223d" d="M14.5 12.6c.9 0 1.8.1 2.6.3v5.2c-.9-.1-1.8-.1-2.6-.1-3 0-5.6 2-5.6 4.4s2.6 4.4 5.6 4.4c.9 0 1.8 0 2.6-.1v5.2c-.9.2-1.8.3-2.6.3-1.7 0-3.5-.4-5-1.2-1.6-.8-2.9-1.9-4-3.3v4.2H0v-27h5.4V17c1.1-1.4 2.4-2.5 4-3.3 1.6-.7 3.3-1.1 5.1-1.1zm15.1-3.5c.9 0 1.8-.3 2.6-.8s1.4-1.2 1.7-2 .4-1.8.3-2.6c-.2-.9-.6-1.7-1.3-2.4C32.3.7 31.4.2 30.5 0c-.9-.2-1.8-.1-2.7.3-.8.4-1.5 1-2 1.7-.5.8-.8 1.7-.8 2.6 0 1.2.5 2.4 1.3 3.2.9.8 2.1 1.3 3.3 1.3zm9.9 13.2c0 1.7-.4 3.3-1.2 4.8-.8 1.5-2 2.7-3.4 3.6-1.4.9-3.1 1.4-4.8 1.5-1.7.1-3.4-.3-4.9-1V40h-5.4V22.3c0-2.6 1-5.1 2.9-6.9 1.8-1.8 4.4-2.9 7-2.9 2.6 0 5.1 1 7 2.9s2.8 4.3 2.8 6.9zm-5.4 0c0-.9-.3-1.7-.8-2.4s-1.2-1.3-2-1.6c-.8-.3-1.7-.4-2.6-.3-.9.2-1.7.6-2.3 1.2-.6.6-1 1.4-1.2 2.3-.2.9-.1 1.7.3 2.5.3.8.9 1.5 1.6 2 .7.5 1.6.7 2.5.7 1.2 0 2.3-.5 3.1-1.3.9-.8 1.4-1.9 1.4-3.1zM52.4 18c.9 0 1.8 0 2.6.1v-5.2c-.9-.2-1.8-.3-2.6-.3-6.1 0-11 4.4-11 9.7s4.9 9.8 11 9.8c.9 0 1.8-.1 2.6-.3v-5.2c-.9.1-1.8.1-2.6.1-3.1 0-5.6-2-5.6-4.4s2.5-4.3 5.6-4.3z"/><path fill="#878787" d="M87.7 7.4v2.1h4.2v5.8h-2.5V11h-8.3V9.6h4.1V7.4h-6V6h10.1V2h-8V.5h10.4V6H94v1.5h-6.3zM114.4.5v1.3c0 1.9-.8 4.9-3.5 6.1l.9 1.1c1.6-.6 3-1.8 3.8-3.3.8 1.5 2.1 2.7 3.7 3.3l1-1.1c-2.8-1.2-3.5-4.1-3.5-6.1V.5h-2.4zm11.7 4.3H124V.5h-2.5v10.9h2.5V6.3h2.2V4.8zm-1.7 10.6v-1.5h-7.9v-3.4H114v3.3c0 .2 0 .4.1.6.1.2.2.4.4.5.4.3.8.5 1.3.4h8.6zm31 0v-1.5h-8.7v-3h-2.5v2.8c0 .2 0 .4.1.6.1.2.2.4.4.5.4.3.8.4 1.3.4h9.4zm1.5-6.8v1.5h-14.6V8.6h6.1V7.3H146c-.5 0-.9-.1-1.3-.4-.2-.2-.3-.3-.4-.5-.1-.2-.1-.4-.1-.6V.5h2.5v1.7h5.7V.5h2.5v6.8h-4.1v1.3h6.1zm-10.2-2.8h5.7V3.7h-5.7v2.1zM173 8.6h-14.6v1.5h6.1v5.3h2.5v-5.3h6.1V8.6zm-10.9-1.3c-.5 0-.9-.1-1.3-.4-.2-.2-.3-.3-.4-.5-.1-.2-.1-.4-.1-.6V.5h2.5v1.7h5.7V.5h2.5v6.8h-8.9zm6.4-1.5V3.7h-5.7v2.2h5.7zm-37.2-.9c-1 1.8-3.2 3-3.2 3l-1-1.1c2.6-1.6 2.9-4 2.9-5.6V.5h2.4v.7c0 1.6.3 4 2.9 5.6l-.9 1.1c.1 0-2.2-1.2-3.1-3zm6.5-.3h-2.9V3.1h2.9V.5h2.5V8h-2.5V4.6zm2.5 7.6c0 2.1-2.1 3.8-4.7 3.8s-4.6-1.7-4.6-3.8 2.1-3.8 4.6-3.8c2.6 0 4.7 1.7 4.7 3.8zm-2.4 0c0-1.3-1-2.4-2.3-2.4-1.3 0-2.3 1.1-2.3 2.4s1 2.4 2.3 2.4c1.2 0 2.3-1.1 2.3-2.4zM99.3 4.9c-1 1.9-3.3 3-3.3 3l-.9-1.1c2.7-1.2 3-4.4 3-5.6V.5h2.3v.8c0 1.2.4 4.4 3 5.6l-.9 1.1c.1-.1-2.2-1.2-3.2-3.1zm7 3.1h-2V.5h2v2.7h1V.5h2V8h-2V4.7h-1V8zm3 4.2c0 2.1-2.1 3.8-4.7 3.8s-4.6-1.7-4.6-3.8 2.1-3.8 4.6-3.8c2.6 0 4.7 1.7 4.7 3.8zm-2.3 0c0-1.3-1-2.4-2.3-2.4-1.3 0-2.3 1.1-2.3 2.4s1 2.4 2.3 2.4c1.2 0 2.3-1.1 2.3-2.4zM78.2 4.7v1.5H76v5.1h-2.5V.5H76v4.3h2.2zm-9.5 9.2h7.8v1.5H68c-.5 0-.9-.1-1.3-.4-.2-.1-.3-.3-.4-.5-.1-.2-.1-.4-.1-.6v-3.3h2.5v3.3zm-.9-5.1c-2.3 0-4.3-1.6-4.3-3.6 0-.5.1-.9.3-1.3.2-.4.5-.8.8-1.1H63V1.3h3.6V0h2.5v1.3h3.5v1.5H71c.3.3.6.7.8 1.1.1.4.2.8.2 1.3 0 2-1.9 3.6-4.2 3.6zm0-1.5c.9 0 1.8-1 1.8-2.2s-.9-2.3-1.8-2.3-1.8 1-1.8 2.3.9 2.2 1.8 2.2z"/><path fill="#313851" d="M75.3 24.3h1.5V20h2.4v11.7h-2.4v-5.1h-1.5v4.3H73V20.3h2.4v4zM73.4 40c-.9 0-1.7-.1-2.4-.3-.7-.2-1.4-.4-1.9-.7-.5-.3-.9-.7-1.2-1.2-.3-.4-.4-1-.4-1.5v-.9c0-.6.1-1.1.4-1.5.3-.5.7-.8 1.2-1.2.5-.3 1.2-.6 1.9-.7.7-.2 1.5-.3 2.4-.3.9 0 1.7.1 2.4.3.7.2 1.4.4 1.9.7.5.3 1 .7 1.2 1.2.3.4.5 1 .5 1.5v.9c0 .6-.2 1.1-.5 1.5-.3.5-.7.8-1.2 1.2-.5.3-1.2.6-1.9.7-.8.2-1.6.3-2.4.3zm0-6.1c-.5 0-.9 0-1.3.1s-.8.2-1.1.4c-.3.2-.6.3-.8.5-.2.2-.3.4-.3.7v.5c0 .3.1.5.3.7.2.2.5.4.8.5.3.2.7.3 1.1.4.4.1.9.1 1.3.1.5 0 .9 0 1.3-.1s.8-.2 1.1-.4c.3-.2.6-.3.8-.5.2-.2.3-.4.3-.7v-.5c0-.3-.1-.5-.3-.7-.2-.2-.4-.4-.8-.5-.3-.2-.7-.3-1.1-.4-.4 0-.9-.1-1.3-.1zm-2.3-3.1c-.3-.3-.7-.6-1-.9-.4-.3-.7-.6-1-.9l-.7-.7c-.2-.2-.3-.4-.3-.5l-.3.6c-.1.2-.4.4-.6.8-.3.3-.6.6-1 1.1l-1.4 1.4-1.8-2c.4-.4.9-.8 1.3-1.2.4-.4.8-.8 1.2-1.3.2-.3.4-.5.6-.8.2-.3.3-.5.4-.8.1-.3.2-.5.2-.8 0-.3.1-.6.1-1V21h2.5v3.7c0 .3.1.5.2.8.1.3.2.5.4.8.2.2.4.5.6.7.7.7 1.4 1.4 2.2 2.1l-1.6 1.7zm24.4-5.7H98v2.3h-2.5v6.4H93V20h2.5v5.1zm-9 11.9H96v2.3H84v-6.6h2.6V37zm-.3-9.3c0 .2-.2.4-.4.7-.2.3-.5.5-.8.8-.5.4-.9.9-1.4 1.3-.5.4-1 .9-1.6 1.4L80.4 30c.5-.4 1-.9 1.6-1.3.5-.5 1-1 1.5-1.4.5-.5.8-1 1-1.5.2-.5.3-1.1.3-1.8v-3h2.6v2.9c0 .4 0 .7.1 1 0 .3.1.6.2.8.1.2.2.5.4.7l.7.7 1.5 1.2c.5.4 1 .8 1.5 1.1l-1.5 1.8c-.4-.3-.8-.6-1.2-1-.4-.3-.9-.7-1.4-1.1-.3-.3-.6-.5-.9-.8-.4-.3-.5-.5-.6-.6zM107.7 40c-.8 0-1.6-.1-2.3-.3-.7-.2-1.3-.4-1.8-.8-.5-.3-.9-.7-1.2-1.2-.3-.5-.4-1-.4-1.6v-.9c0-.6.1-1.1.4-1.6.3-.5.7-.8 1.2-1.2.5-.3 1.1-.6 1.8-.8.7-.2 1.5-.3 2.3-.3.8 0 1.6.1 2.3.3.7.2 1.3.4 1.8.8.5.3.9.7 1.2 1.2.3.5.5 1 .5 1.6v.9c0 .6-.2 1.1-.5 1.6s-.7.8-1.2 1.2c-.5.3-1.1.6-1.8.8-.7.2-1.5.3-2.3.3zm-4-12.6c-.1.2-.2.4-.4.6l-.9.9c-.5.4-1 .8-1.5 1.3-.5.4-1 .8-1.6 1.3l-1.5-1.9c.6-.4 1.1-.9 1.6-1.3s1-.8 1.4-1.3c.4-.4.7-.8 1-1.4.3-.5.4-1.1.4-1.8v-2.9h2.6v3.7c0 .3.1.5.2.8.1.2.2.5.4.7.2.2.4.4.7.6.4.3.8.7 1.3 1.1.5.4 1 .8 1.5 1.1l-1.4 1.8c-.5-.3-.9-.7-1.3-1-.4-.3-.8-.7-1.2-1-.3-.3-.7-.5-.9-.8-.2-.2-.4-.4-.4-.5zm7.3-1.2h-3.3V24h3.3v-4h2.5v11.5H111v-5.3zm-3.3 7.6c-.4 0-.9 0-1.3.1s-.8.2-1.1.4c-.3.2-.6.3-.7.6-.2.2-.3.4-.3.7v.5c0 .2.1.5.3.7.2.2.4.4.7.6.3.2.7.3 1.1.4.4.1.8.1 1.3.1.4 0 .9 0 1.3-.1s.8-.2 1.1-.4c.3-.2.6-.3.7-.6.2-.2.3-.4.3-.7v-.5c0-.2-.1-.5-.3-.7-.2-.2-.4-.4-.7-.6-.3-.2-.7-.3-1.1-.4-.4-.1-.8-.1-1.3-.1zM125 40c-.8 0-1.6-.1-2.3-.3-.7-.2-1.3-.4-1.8-.8-.5-.3-.9-.7-1.2-1.2-.3-.5-.4-1-.4-1.6v-.9c0-.6.1-1.1.4-1.6.3-.5.7-.9 1.2-1.2.5-.3 1.1-.6 1.8-.8.7-.2 1.5-.3 2.3-.3.8 0 1.6.1 2.3.3.7.2 1.3.4 1.9.8.5.3.9.7 1.2 1.2.3.5.5 1 .5 1.6v.9c0 .6-.2 1.1-.5 1.6s-.7.9-1.2 1.2c-.5.3-1.1.6-1.9.8-.7.2-1.5.3-2.3.3zm0-6.3c-.4 0-.9 0-1.3.1s-.8.2-1.1.4c-.3.2-.6.3-.7.6-.2.2-.3.4-.3.7v.5c0 .3.1.5.3.7.2.2.4.4.7.6.3.2.7.3 1.1.4.4.1.8.1 1.3.1.4 0 .9 0 1.3-.1s.8-.2 1.1-.4c.3-.2.6-.3.7-.6.2-.2.3-.4.3-.7v-.5c0-.3-.1-.5-.3-.7-.2-.2-.4-.4-.7-.6-.3-.2-.7-.3-1.1-.4-.4 0-.8-.1-1.3-.1zm3.3-11V20h2.5v11.5h-2.5V29h-3.1v-2.2h3.1V25h-2.8v-2.2h2.8zm-12.8 7c1.4-.6 2.6-1.2 3.4-1.6.9-.4 1.5-.9 2-1.3s.8-.8.9-1.2c.1-.4.2-.9.2-1.4v-.9h-5.7v-2.2h8.2v3.4c0 .6-.1 1.1-.2 1.5-.1.4-.3.9-.5 1.3s-.5.8-.9 1.1c-.4.3-.9.7-1.5 1.1-.6.4-1.3.7-2.1 1.1-.8.4-1.7.8-2.8 1.3l-1-2.2zm30.1-7.5V20h2.5v11.4h-2.5v-2.6h-2.5v-2.2h2.5v-2.2h-2.5v-2.2h2.5zm-7.9 8.2c-.8 0-1.4-.1-2-.4-.6-.3-1.1-.6-1.5-1-.4-.4-.7-.9-.9-1.4-.2-.5-.3-1.1-.3-1.6v-.9c0-.6.1-1.1.3-1.6.2-.5.5-1 .9-1.4.4-.4.9-.7 1.5-1 .6-.3 1.3-.4 2-.4.8 0 1.4.1 2 .4.6.3 1.1.6 1.5 1 .4.4.7.9.9 1.4.2.5.3 1.1.3 1.6v.9c0 .6-.1 1.1-.3 1.6-.2.5-.5 1-.9 1.4-.4.4-.9.7-1.5 1-.6.3-1.3.4-2 .4zm0-7.5c-.4 0-.7.1-1 .2-.3.1-.5.3-.7.5-.2.2-.4.4-.5.7-.1.3-.1.5-.1.8v.8c0 .3 0 .5.1.8.1.3.3.5.5.7.2.2.4.4.7.5.3.1.6.2 1 .2s.7-.1 1-.2c.3-.1.5-.3.7-.5.2-.2.3-.4.4-.7.1-.3.2-.5.2-.8v-.8c0-.3-.1-.5-.2-.8-.1-.3-.2-.5-.4-.7-.2-.2-.5-.4-.7-.5-.3-.1-.6-.2-1-.2zm4.6 17.1c-.8 0-1.6-.1-2.3-.3-.7-.2-1.3-.4-1.9-.7-.5-.3-.9-.7-1.2-1.2-.3-.5-.4-1-.4-1.6v-.9c0-.6.1-1.1.4-1.6.3-.5.7-.9 1.2-1.2.5-.3 1.1-.6 1.9-.7.7-.2 1.5-.3 2.3-.3.8 0 1.6.1 2.3.3.7.2 1.3.4 1.9.7.5.3.9.7 1.2 1.2.3.5.5 1 .5 1.6v.9c0 .6-.2 1.1-.5 1.6s-.7.9-1.2 1.2c-.5.3-1.1.6-1.9.7-.7.2-1.4.3-2.3.3zm0-6.3c-.4 0-.9 0-1.3.1s-.8.2-1.1.4c-.3.2-.6.4-.7.6-.2.2-.3.5-.3.7v.5c0 .3.1.5.3.7.2.2.4.4.7.6.3.2.7.3 1.1.4.4.1.8.1 1.3.1.4 0 .9 0 1.3-.1s.8-.2 1.1-.4c.3-.2.6-.4.7-.6.2-.2.3-.5.3-.7v-.5c0-.3-.1-.5-.3-.7-.2-.2-.4-.4-.7-.6-.3-.2-.7-.3-1.1-.4-.4-.1-.8-.1-1.3-.1zm8.5-12h10V24h-3.6v2.2c0 .4 0 .8.1 1.1 0 .3.1.6.2.9.1.3.3.6.4.9.2.3.4.6.7.9.4.5.9 1 1.4 1.5l1.5 1.5-1.6 1.8c-.4-.4-.9-.8-1.3-1.3-.4-.4-.8-.9-1.2-1.3-.4-.4-.7-.8-1-1.1-.3-.3-.4-.6-.5-.8-.1.2-.3.5-.6.8-.3.4-.6.7-.9 1.1-.4.4-.8.8-1.2 1.3l-1.4 1.4-1.7-1.8c1.1-1 2.1-2 3-3 .3-.3.5-.7.7-1 .2-.3.4-.6.5-.9.1-.3.2-.6.2-1 .1-.3.1-.7.1-1.2v-2.2h-3.8v-2.1zm14.8 17.7H163V20h2.6v19.4zm7.7-11.6c-.7 0-1.3-.1-1.9-.3-.6-.2-1.1-.4-1.5-.7-.4-.3-.7-.7-1-1.1-.2-.4-.4-.9-.4-1.4v-.6c0-.5.1-1 .4-1.4.2-.4.6-.8 1-1.1.4-.3.9-.5 1.5-.7.6-.2 1.2-.3 1.9-.3s1.3.1 1.9.3c.6.2 1.1.4 1.5.7.4.3.8.7 1 1.1.2.4.4.9.4 1.4v.6c0 .5-.1 1-.4 1.4-.2.4-.6.8-1 1.1-.4.3-.9.5-1.5.7-.6.2-1.2.3-1.9.3zm3.4 3.6h3.7V20h2.5v15h-2.5v-1.4h-3.7v-2.2zM173 37h10.2v2.3h-12.8V34h2.6v3zm-5.6-8.4h4.1c1.2 0 2.2 0 3.2-.1.9 0 1.8-.1 2.5-.1s1.4-.1 2.1-.2l.2 2.2c-.6.1-1.4.2-2.2.2-.8 0-1.8.1-2.9.1v2.5h-2.5v-2.5h-4.4v-2.1zm5.9-6.1c-.7 0-1.2.1-1.7.4-.4.3-.6.6-.6 1v.3c0 .4.2.7.6 1 .4.3 1 .4 1.7.4s1.2-.1 1.7-.4c.4-.3.6-.6.6-1v-.3c0-.4-.2-.7-.6-1-.4-.3-1-.4-1.7-.4zm26.9 16.9h-2.6V20h2.6v19.4zm-7.1-9.6c.4.5.9 1 1.4 1.5l1.5 1.5-1.6 1.8c-.5-.4-.9-.9-1.3-1.3s-.8-.9-1.2-1.3c-.4-.4-.7-.8-1-1.1-.3-.3-.4-.6-.5-.8-.1.2-.3.5-.6.9s-.6.7-.9 1.1c-.4.4-.8.8-1.2 1.3l-1.5 1.5-1.7-1.8c1.1-1.1 2.1-2.1 3-3.1.3-.3.5-.7.7-1 .2-.3.4-.6.5-.9.1-.3.2-.7.3-1 .1-.3.1-.7.1-1.2v-4.5h2.6V27c0 .3.1.7.2 1 .1.3.2.6.4.9.3.3.5.6.8.9zm25.8 4.9V37h-17.1v-2.2h17.1zm-8.5-7c-.1.2-.3.5-.7.8-.3.3-.8.6-1.3.9-.6.4-1.2.8-1.9 1.3-.7.4-1.6 1-2.5 1.5l-1.2-2.1c.7-.4 1.5-.9 2.2-1.3.8-.5 1.4-.9 2-1.3.4-.3.7-.6 1-.8.3-.3.5-.6.6-.9.2-.3.3-.7.3-1s.1-.8.1-1.2v-2.2h2.6v2.2c0 .5 0 .9.1 1.2s.2.7.3 1l.6.9c.3.3.6.6 1 .8.6.4 1.3.9 2 1.3.8.5 1.5.9 2.2 1.3l-1.2 2c-1-.6-1.8-1.1-2.5-1.5-.7-.5-1.4-.9-1.9-1.3s-.9-.7-1.2-.9c-.3-.2-.5-.5-.6-.7zm12.5 4.5H235v7.2h-12.1v-7.2zM227 21v2.2h-5v1.6h4.2v2.1H222v1.6h3c.9 0 1.8-.1 2.7-.2l.2 2.1c-.5.1-1 .1-1.5.1s-1.1.1-1.8.1h-5V21h7.4zm2 5.8h-1.8v-2.3h1.8v-4.3h2.4v11H229v-4.4zm6 4.5h-2.4V20h2.4v11.3zm-9.6 6h7.1v-2.9h-7.1v2.9z"/></svg>