<svg width="48" height="48" fill="none" xmlns="http://www.w3.org/2000/svg"><path d="M17.939 27.809h-2.626a1.72 1.72 0 00-1.233.515 1.845 1.845 0 00-.537 1.26v7.465c.012.474.204.926.537 1.26a1.743 1.743 0 001.233.515h2.626c.231.01.462-.03.677-.114.425-.182.762-.525.942-.955.096-.22.15-.456.16-.697v-7.464a1.934 1.934 0 00-.556-1.28 1.823 1.823 0 00-.583-.381 1.662 1.662 0 00-.678-.115l.038-.01zm.376 9.24a.387.387 0 010 .143.258.258 0 01-.084.114.33.33 0 01-.123.077.353.353 0 01-.14 0H15.34a.296.296 0 01-.132 0 .417.417 0 01-.178-.182.38.38 0 010-.133v-7.465a.348.348 0 01.103-.248.337.337 0 01.235-.096h2.626a.243.243 0 01.142 0 .31.31 0 01.206.192.387.387 0 010 .143l-.028 7.455zM30.024 3h-19.54a2.427 2.427 0 00-1.75.754A2.587 2.587 0 008 5.568v36.864a2.59 2.59 0 00.734 1.814 2.417 2.417 0 001.75.754h27.031a2.427 2.427 0 001.76-.754A2.625 2.625 0 0040 42.432V13.328L30.024 3zm.423 2.52l7.595 7.856h-7.595V5.52zm8.122 36.912a1.135 1.135 0 01-.31.773 1.045 1.045 0 01-.744.316h-27.03a1.056 1.056 0 01-.744-.316 1.135 1.135 0 01-.31-.773V5.568c0-.286.112-.56.31-.764a1.035 1.035 0 01.744-.324h18.532v9.096a1.295 1.295 0 00.766 1.188c.15.066.312.1.476.101h8.31v27.567zM28.536 26.864v10.051a2.03 2.03 0 00.584 1.365 1.87 1.87 0 001.327.563h2.344c.25.009.501-.037.734-.133a1.72 1.72 0 00.63-.41 2.08 2.08 0 00.433-.63c.096-.241.15-.496.16-.755V26.864a2.192 2.192 0 00-.16-.745 2.118 2.118 0 00-.433-.64 2.01 2.01 0 00-.63-.41 1.756 1.756 0 00-.734-.124h-2.344a1.86 1.86 0 00-.725.124 1.88 1.88 0 00-1.035 1.05 2.019 2.019 0 00-.15.745zm1.44 0a.427.427 0 010-.191.403.403 0 01.104-.172.364.364 0 01.226-.086.427.427 0 01.188 0h2.344a.464.464 0 01.197 0c.065.02.123.056.17.105.049.047.09.102.122.162a.755.755 0 010 .2v10.033a.548.548 0 01-.17.353.514.514 0 01-.357.143h-2.343a.477.477 0 01-.34-.143.53.53 0 01-.131-.353l-.01-10.051zm-4.705-3.904h-2.335a2.042 2.042 0 00-1.402.715 2.177 2.177 0 00-.508 1.509v11.454c-.02.273.02.546.113.802a2.04 2.04 0 001.035 1.174c.236.123.497.192.762.2h2.335a2.04 2.04 0 001.411-.677c.37-.407.566-.946.546-1.499V25.184a2.224 2.224 0 00-.113-.821 2.317 2.317 0 00-.414-.707 2.186 2.186 0 00-.65-.496 2.196 2.196 0 00-.78-.2zm.527 13.64a.558.558 0 01-.15.382.527.527 0 01-.377.162h-2.335a.454.454 0 01-.197 0 .405.405 0 01-.16-.124.47.47 0 01-.104-.172.534.534 0 010-.21V25.184a.534.534 0 010-.21.43.43 0 01.104-.182.37.37 0 01.16-.133.446.446 0 01.197-.067h2.335a.599.599 0 01.376.19.645.645 0 01.15.402V36.6z" fill="#000"/></svg>