<svg width="48" height="48" fill="none" xmlns="http://www.w3.org/2000/svg"><path d="M38.37 27.24A6.79 6.79 0 1045 34.05a6.71 6.71 0 00-6.63-6.81zm2.84 4.81a.67.67 0 01-.14.28l-3 4.25a.719.719 0 01-.25.24.728.728 0 01-.33.08.709.709 0 01-.32-.07.7.7 0 01-.26-.19l-1.86-2.09a.82.82 0 01-.15-.59.77.77 0 01.31-.52.84.84 0 011.11.1l1 1.33 2.42-3.4a.812.812 0 01.51-.34.65.65 0 01.31 0c.104.02.202.062.29.12a.74.74 0 01.2.23.768.768 0 01.1.29.8.8 0 01.06.28z" fill="#000"/><path d="M31.96 23.21a.817.817 0 010 1.18.831.831 0 01-.59.25h-9.49a.84.84 0 01-.6-.25.85.85 0 010-1.18.838.838 0 01.6-.25h9.49a.829.829 0 01.59.25zm-.59 5.14h-9.49a.838.838 0 00-.839.845.86.86 0 00.239.595.84.84 0 00.6.25h9.49a.85.85 0 000-1.69zm-12.5-1.22a.869.869 0 00-.31-.18.82.82 0 00-.35 0 .798.798 0 00-.6.36l-1.91 2.13-.78-.9a.71.71 0 00-.25-.29.759.759 0 00-.34-.16.808.808 0 00-.38 0 .75.75 0 00-.34.18.93.93 0 00-.22.3 1 1 0 00-.07.38.76.76 0 00.11.36.84.84 0 00.25.28l1.4 1.63a.801.801 0 00.62.28.9.9 0 00.62-.28l2.53-2.8a.94.94 0 00.21-.28.86.86 0 00.09-.35.839.839 0 00-.07-.35.86.86 0 00-.21-.31zm-3.79-6.81a.7.7 0 00.28.21.812.812 0 00.34.08.872.872 0 00.62-.29l2.53-2.8a.89.89 0 00.14-.57.85.85 0 00-.27-.53.919.919 0 00-.55-.22.89.89 0 00-.56.2l-1.91 2.08-.78-.9a.89.89 0 00-.56-.2.84.84 0 00-.819.746.85.85 0 00.139.574l1.4 1.62zm3.79 1.37a.729.729 0 00-.31-.17.82.82 0 00-.35 0 .798.798 0 00-.34.11.999.999 0 00-.26.25l-1.91 2.07-.78-.9a.85.85 0 00-1.18-.06.86.86 0 00-.27.58.84.84 0 00.21.6l1.4 1.62a.801.801 0 00.62.28.9.9 0 00.62-.28l2.53-2.8a.83.83 0 00.21-.28.86.86 0 00.09-.35.839.839 0 00-.07-.35.86.86 0 00-.21-.32zm18.45 20.43H39v.79a3.05 3.05 0 01-.9 2.18 3.1 3.1 0 01-2.19.96H10.09A3.09 3.09 0 017 42.96V10.4a3.07 3.07 0 013.09-3.08h5.05v-.39a2.73 2.73 0 01.87-1.88 2.78 2.78 0 011.94-.75h.56l.11-.25c.51-.89 1-2 2.7-2h3.36a2.54 2.54 0 012.53 1.68l.28.56h.56a3 3 0 011.06.17c.332.13.637.32.9.56.26.248.47.543.62.87.136.317.214.656.23 1v.39h5a3.14 3.14 0 012.19.9c.576.58.9 1.363.9 2.18v15.58h-1.63V10.4a1.4 1.4 0 00-1.41-1.35h-5a2.68 2.68 0 01-2.81 2.52H17.95a2.74 2.74 0 01-1.91-.7 2.77 2.77 0 01-.9-1.82h-5.05a1.41 1.41 0 00-1 .41 1.39 1.39 0 00-.42 1v32.45a1.42 1.42 0 001.41 1.4h25.83a1.401 1.401 0 001.41-1.4v-.79zM16.83 8.95a1 1 0 00.11.38 1.001 1.001 0 00.61.48.91.91 0 00.4 0h10.1a.9.9 0 00.4 0 1 1 0 00.61-.48 1.3 1.3 0 00.15-.38v-2a1.08 1.08 0 00-.37-.7 1 1 0 00-.76-.25h-1.65l-.68-1.46c-.39-.67-.45-.84-1.07-.84h-3.36c-.62 0-.73.22-1.13 1.06L19.63 6h-1.68a1 1 0 00-.75.25 1 1 0 00-.37.7v2zM23 6.76a.56.56 0 100-1.12.56.56 0 000 1.12zm8.37 10.76h-9.49a.838.838 0 00-.827.68.84.84 0 00.827 1h9.49a.822.822 0 00.59-.24.85.85 0 00-.59-1.44z" fill="#000"/></svg>