<svg width="48" height="48" fill="none" xmlns="http://www.w3.org/2000/svg"><path d="M36.912 45H11.088a3.151 3.151 0 01-2.184-.87A2.913 2.913 0 018 42.03V10.72c0-.39.08-.776.235-1.136.155-.36.383-.688.67-.964a3.099 3.099 0 011.001-.643 3.18 3.18 0 011.182-.226h5.895v1.62h-5.895c-.372 0-.73.141-.993.394a1.324 1.324 0 00-.41.955v31.31c0 .359.147.702.41.955s.62.395.993.395h25.824c.373 0 .73-.142.993-.395s.41-.596.41-.954V10.72a1.3 1.3 0 00-.106-.517 1.35 1.35 0 00-.304-.438 1.408 1.408 0 00-.456-.292 1.453 1.453 0 00-.537-.103h-5.895V7.75h5.895c.82 0 1.605.313 2.184.87.579.557.904 1.312.904 2.1v31.31c0 .788-.325 1.544-.904 2.1a3.151 3.151 0 01-2.184.87zM31.017 7.373v2.16c0 .5-.206.98-.575 1.335a2.005 2.005 0 01-1.39.554H18.948c-.52 0-1.02-.2-1.389-.554a1.853 1.853 0 01-.575-1.336v-2.16c0-.5.206-.981.575-1.335a2.005 2.005 0 011.39-.554h1.122l.337-.863c.393-.864.73-1.62 1.909-1.62h3.368c1.123 0 1.404.594 1.797 1.35l.112.27.337.863h1.123c.52 0 1.02.2 1.389.554.369.354.575.835.575 1.336zm-1.684 0c0-.072-.03-.14-.082-.191a.286.286 0 00-.198-.08h-2.246l-.842-1.997a3.333 3.333 0 01-.225-.485h-3.48l-.281.593-.786 1.89h-2.246a.286.286 0 00-.198.079.265.265 0 00-.082.19v2.16c0 .072.03.14.082.191a.29.29 0 00.198.08h10.106a.286.286 0 00.198-.08.265.265 0 00.082-.19v-2.16zM24 6.13a.573.573 0 00-.397.158.53.53 0 00-.164.382c0 .143.059.28.164.382a.573.573 0 00.794 0 .53.53 0 00.164-.382.53.53 0 00-.164-.382A.573.573 0 0024 6.13zm-7.298 15.44a.756.756 0 01-.344-.062.725.725 0 01-.274-.208l-1.403-1.512a.843.843 0 01.056-1.188.926.926 0 011.179.108l.786.864 1.908-2.051a.83.83 0 01.26-.234.866.866 0 011 .095.782.782 0 01.193.948.814.814 0 01-.217.27l-2.527 2.7a.725.725 0 01-.274.208.756.756 0 01-.343.062zm.617 5.02l2.527-2.699a.894.894 0 00-.056-1.188.863.863 0 00-1.18.054l-1.908 2.052-.786-.864a.864.864 0 00-1.109.02.786.786 0 00-.127 1.06l1.404 1.511c.113.216.337.27.618.324a.914.914 0 00.617-.27zm0 5.237l2.527-2.7a.791.791 0 00-.056-1.133.813.813 0 00-1.179.054l-1.91 1.997-.785-.863a.864.864 0 00-1.109.02.786.786 0 00-.127 1.06l1.404 1.565a.74.74 0 00.274.208.756.756 0 00.344.062.914.914 0 00.617-.27zM32.365 20.22h-9.488a.86.86 0 01-.595-.237.794.794 0 01-.247-.573c0-.215.089-.42.247-.572a.86.86 0 01.595-.237h9.488a.872.872 0 01.595.237.808.808 0 01.247.572.783.783 0 01-.247.573.846.846 0 01-.595.237zm.842 4.48a.794.794 0 00-.247-.572.86.86 0 00-.595-.237h-9.488a.86.86 0 00-.595.237.794.794 0 00-.247.573c0 .215.089.42.247.572a.86.86 0 00.595.238h9.488a.872.872 0 00.595-.238.808.808 0 00.247-.572zm0 5.237a.794.794 0 00-.247-.572.86.86 0 00-.595-.238h-9.488a.86.86 0 00-.595.238.794.794 0 00-.247.572c0 .215.089.421.247.573a.86.86 0 00.595.237h9.488a.872.872 0 00.595-.237.808.808 0 00.247-.573z" fill="#000"/></svg>