<svg xmlns="http://www.w3.org/2000/svg" width="48" height="48"><path fill="#C7C7C7" d="M30.169 24.852c.074.02.15.03.228.03a.852.852 0 00.83-.744.864.864 0 00-.602-.94l-3.378-.944a.856.856 0 00-.939 1.24.85.85 0 00.483.414l3.378.944zm14.78 4.02l-3.093-1.95-4.545-2.86 4.84-3.07 3.17-2.006-3.6-1.08-9.746-2.948-.762-.226-.66.41-4.746 2.936-1.8 1.12h-.03l-1.794-1.102-4.695-2.933-.666-.42-.765.23-9.638 2.936-3.558 1.08 3.123 2.004 4.673 2.984-4.826 2.93-3.24 1.967 3.624 1.132 3.998 1.246v8.78c0 .18.058.354.162.499.104.142.25.248.417.301l12.759 4.394a.92.92 0 00.567 0l12.764-4.382a.853.853 0 00.585-.811v-8.727l4.014-1.303 3.468-1.132zM22.987 20.8v6.228L22 26.726l-9.084-2.686 8.895-2.866 1.176-.374zm-16.04-1.244l9.638-2.93 4.698 2.93-9.54 3.07-4.796-3.07zm-.195 8.823l4.83-2.933 9.914 2.933-4.956 3.07-9.788-3.07zm16.076 14.786l-10.869-3.736v-7.637l4.086 1.27.762.239.675-.42 4.956-3.068.555-.341-.165 13.693zm8.649-26.554l9.746 2.93-4.86 3.081-9.63-3.069 4.744-2.942zm-6.762 4.101l1.5.477 8.867 2.821-8.867 2.716-1.527.465.027-6.479zM35.742 39.42L24.55 43.292l.153-14.182 1.08.724 4.77 3.069.69.443.783-.253 3.704-1.207.012 7.534zm-4.232-7.978l-4.767-3.06 9.563-2.933 4.66 2.933-9.456 3.06zM6.758 10.287c.421 0 .834-.127 1.184-.362a2.146 2.146 0 00.906-2.2 2.155 2.155 0 00-.582-1.098 2.138 2.138 0 00-2.324-.465 2.166 2.166 0 00-.957.79 2.154 2.154 0 00.678 3.029c.33.2.709.305 1.095.306zm-.9-3.057a1.278 1.278 0 012.066.36 1.295 1.295 0 01-.908 1.816 1.274 1.274 0 01-1.384-.655 1.295 1.295 0 01.226-1.52zm-2.205 7.004c.097-.235.122-.493.072-.743a1.28 1.28 0 00-1.002-1.008 1.259 1.259 0 00-.738.073 1.292 1.292 0 00-.32 2.178c.228.189.514.292.809.293a1.276 1.276 0 001.179-.793zm-.756-.41a.426.426 0 11-.027-.24.437.437 0 01.027.248v-.009zm38.998 28.75a1.654 1.654 0 00-.582-.344 1.758 1.758 0 00-1.224.059 1.771 1.771 0 00-.89.846 1.729 1.729 0 00.467 2.09c.3.242.672.374 1.056.375.48-.011.936-.21 1.272-.555.156-.168.278-.365.36-.58a1.737 1.737 0 00-.459-1.88v-.011zm-.26 1.753a1.02 1.02 0 01-1.12.551 1.016 1.016 0 01-.81-.953 1.049 1.049 0 01.06-.395 1.024 1.024 0 01.954-.682c.232 0 .456.08.636.226a1.03 1.03 0 01.28 1.253zm5.147-4.288a.355.355 0 01-.093.238.341.341 0 01-.225.115h-.825v.818a.35.35 0 01-.597.246.357.357 0 01-.105-.246v-.827h-.822a.353.353 0 01-.318-.355c0-.088.032-.173.09-.24a.368.368 0 01.228-.114h.822v-.824a.357.357 0 01.351-.353.346.346 0 01.325.217c.018.043.026.09.026.136v.824h.843a.356.356 0 01.318.356l-.018.009z"/><path fill="#909090" d="M27.994 2.4h-8.588c-.619 0-1.231.12-1.802.352a4.717 4.717 0 00-1.527 1.001 4.61 4.61 0 00-1.02 1.498 4.533 4.533 0 00-.357 1.765c0 1.223.496 2.396 1.378 3.261a4.758 4.758 0 003.328 1.353h2.64l1.488 1.454c.04.039.087.069.139.09a.498.498 0 00.163.026.413.413 0 00.29-.14l1.21-1.43h2.64a4.752 4.752 0 001.815-.353 4.69 4.69 0 002.114-1.698c.518-.758.794-1.65.795-2.563a4.572 4.572 0 00-1.379-3.26A4.765 4.765 0 0027.994 2.4zm-6.653 5.662a.832.832 0 01-.448-.133.78.78 0 01-.347-.811.783.783 0 01.22-.404.81.81 0 01.649-.227.82.82 0 01.591.346.791.791 0 01.076.741.787.787 0 01-.438.429.819.819 0 01-.309.06h.006zm2.365 0a.816.816 0 01-.746-.488.773.773 0 01.174-.86.82.82 0 011.082-.053.792.792 0 01.294.61.775.775 0 01-.234.56.806.806 0 01-.57.231zm2.365 0a.832.832 0 01-.448-.133.78.78 0 01-.348-.811.783.783 0 01.221-.404.81.81 0 01.649-.227.819.819 0 01.591.346.791.791 0 01.076.741.788.788 0 01-.438.429.819.819 0 01-.31.06h.007z"/></svg>