<svg xmlns="http://www.w3.org/2000/svg" width="120" height="120"><path fill="#e6223d" d="M95.925 68.1A16.976 16.976 0 10112.5 85.125a16.771 16.771 0 00-4.754-11.953A16.783 16.783 0 0095.925 68.1zm7.1 12.025c-.06.258-.18.498-.35.7l-7.5 10.625a1.8 1.8 0 01-.625.6 1.81 1.81 0 01-.825.2 1.775 1.775 0 01-.8-.175 1.75 1.75 0 01-.65-.475l-4.65-5.225a2.05 2.05 0 01-.375-1.475 1.926 1.926 0 01.775-1.3 2.1 2.1 0 012.775.25l2.5 3.325 6.05-8.5c.144-.218.33-.406.55-.55a2.03 2.03 0 01.725-.3c.254-.062.52-.062.775 0 .259.052.505.154.725.3.204.155.375.351.5.575.131.223.216.47.25.725.091.223.142.46.15.7z"/><path fill="#c7c7c7" d="M79.9 58.025a2.05 2.05 0 010 2.95 2.075 2.075 0 01-1.475.625H54.7a2.1 2.1 0 01-1.5-.625 2.125 2.125 0 010-2.95 2.102 2.102 0 011.5-.625h23.725a2.074 2.074 0 011.475.625zm-1.475 12.85H54.7a2.1 2.1 0 00-1.5.625 2.15 2.15 0 000 2.975 2.1 2.1 0 001.5.625h23.725a2.125 2.125 0 000-4.225zm-31.25-3.05a2.174 2.174 0 00-.775-.45 2.05 2.05 0 00-.875 0 2 2 0 00-.85.275 2.2 2.2 0 00-.65.625L39.25 73.6l-1.95-2.25a1.775 1.775 0 00-.625-.725 1.9 1.9 0 00-.85-.4 2.026 2.026 0 00-.95 0c-.318.073-.61.228-.85.45-.232.21-.419.465-.55.75a2.49 2.49 0 00-.175.95c.015.318.11.627.275.9.153.277.367.516.625.7l3.5 4.075c.193.222.432.401.7.525a2 2 0 00.85.175 2.25 2.25 0 001.55-.7l6.325-7a2.37 2.37 0 00.525-.7c.136-.273.213-.571.225-.875.005-.301-.055-.6-.175-.875a2.15 2.15 0 00-.525-.775zM37.7 50.8c.186.23.427.41.7.525.266.127.556.196.85.2a2.174 2.174 0 001.55-.725l6.325-7a2.22 2.22 0 00.35-1.425 2.125 2.125 0 00-.675-1.325 2.3 2.3 0 00-1.375-.55 2.225 2.225 0 00-1.4.5l-4.775 5.2-1.95-2.25a2.225 2.225 0 00-1.4-.5 2.1 2.1 0 00-2.047 1.864c-.06.505.064 1.014.347 1.436l3.5 4.05zm9.475 3.425a1.825 1.825 0 00-.775-.425 2.05 2.05 0 00-.875 0 2 2 0 00-.85.275 2.501 2.501 0 00-.65.625l-4.775 5.175-1.95-2.25a2.125 2.125 0 00-2.95-.15 2.15 2.15 0 00-.675 1.45 2.1 2.1 0 00.525 1.5l3.5 4.05a2 2 0 001.55.7 2.25 2.25 0 001.55-.7l6.325-7c.223-.194.402-.432.525-.7.136-.273.213-.571.225-.875.005-.301-.055-.6-.175-.875a2.15 2.15 0 00-.525-.8zM93.3 105.3h4.2v1.975a7.624 7.624 0 01-2.25 5.45 7.759 7.759 0 01-5.475 2.4h-64.55A7.724 7.724 0 0117.5 107.4V26a7.675 7.675 0 017.725-7.7H37.85v-.975c.08-1.792.86-3.48 2.175-4.7a6.95 6.95 0 014.85-1.875h1.4l.275-.625c1.275-2.225 2.5-5 6.75-5h8.4a6.35 6.35 0 016.325 4.2l.7 1.4h1.4c.902-.02 1.8.125 2.65.425a7.24 7.24 0 012.25 1.4 7.048 7.048 0 011.55 2.175c.34.792.536 1.638.575 2.5v.975h12.5a7.85 7.85 0 015.475 2.25 7.725 7.725 0 012.25 5.45v38.95H93.3V26a3.5 3.5 0 00-3.525-3.375h-12.5a6.7 6.7 0 01-7.025 6.3H44.875a6.85 6.85 0 01-4.775-1.75 6.925 6.925 0 01-2.25-4.55H25.225a3.524 3.524 0 00-2.5 1.025 3.476 3.476 0 00-1.05 2.5v81.125a3.55 3.55 0 003.525 3.5h64.575a3.495 3.495 0 002.491-1.017 3.497 3.497 0 001.034-2.483V105.3zM42.075 22.375a2.5 2.5 0 00.275.95 2.5 2.5 0 001.525 1.2c.33.074.67.074 1 0h25.25c.33.075.67.075 1 0a2.5 2.5 0 001.525-1.2c.175-.295.301-.616.375-.95v-5a2.7 2.7 0 00-.925-1.75A2.501 2.501 0 0070.2 15h-4.125l-1.7-3.65c-.975-1.675-1.125-2.1-2.675-2.1h-8.4c-1.55 0-1.825.55-2.825 2.65l-1.4 3.1h-4.2a2.5 2.5 0 00-1.875.625 2.499 2.499 0 00-.925 1.75v5zM57.5 16.9a1.4 1.4 0 100-2.8 1.4 1.4 0 000 2.8zm20.925 26.9H54.7a2.1 2.1 0 100 4.2h23.725a2.051 2.051 0 001.475-.6 2.125 2.125 0 00-1.475-3.6z"/></svg>